# xmcd
#
# Track frame offsets:
#	150
#	5311
#	20915
#	34563
#	53658
#	76162
#	92214
#	106718
#	121604
#	135166
#	155442
#	168103
#
# Disc length: 2549 seconds
#
# Revision: 1
# Processed by: cddbd v1.5PL3 Copyright (c) Steve Scherf et al.
# Submitted via: EasyCDDAExtractor 7.0.5.1
#
DISCID=7809f30c
DTITLE=R.L. Burnside - Come On In
DYEAR=1998
DGENRE=Blues
TTITLE0=Been Mistreated
TTITLE1=Com On In Pt 1
TTITLE2=Let My Baby Ride
TTITLE3=Don't Stop Honey
TTITLE4=It's Bad You Know
TTITLE5=Just Like a Woman
TTITLE6=Come On In Pt 2
TTITLE7=Rollin' Tumblin'
TTITLE8=Please Don't Stay
TTITLE9=Shuck Dub
TTITLE10=Come On In Pt 3
TTITLE11=Heat
EXTD=
EXTT0=
EXTT1=
EXTT2=
EXTT3=
EXTT4=
EXTT5=
EXTT6=
EXTT7=
EXTT8=
EXTT9=
EXTT10=
EXTT11=
PLAYORDER=
